<svg width="32" height="32" viewBox="0 0 32 32" fill="none" xmlns="http://www.w3.org/2000/svg">
  <path d="M27.5821 2L17.8047 10.6223L19.7732 5.56498L27.5821 2Z" fill="#E17726" stroke="#E17726" stroke-width="0.2" stroke-linecap="round" stroke-linejoin="round"/>
  <path d="M4.41797 2L14.0821 10.7021L12.2269 5.56498L4.41797 2Z" fill="#E27625" stroke="#E27625" stroke-width="0.2" stroke-linecap="round" stroke-linejoin="round"/>
  <path d="M23.8255 22.3303L21.0156 27.0538L26.9119 28.8839L28.6422 22.4302L23.8255 22.3303Z" fill="#E27625" stroke="#E27625" stroke-width="0.2" stroke-linecap="round" stroke-linejoin="round"/>
  <path d="M3.36816 22.4302L5.08846 28.8839L10.9747 27.0538L8.17486 22.3303L3.36816 22.4302Z" fill="#E27625" stroke="#E27625" stroke-width="0.2" stroke-linecap="round" stroke-linejoin="round"/>
  <path d="M10.6347 14.1081L8.96484 16.8681L14.7916 17.1578L14.5818 10.941L10.6347 14.1081Z" fill="#E27625" stroke="#E27625" stroke-width="0.2" stroke-linecap="round" stroke-linejoin="round"/>
  <path d="M21.3653 14.1081L17.3684 10.8611L17.2084 17.1578L23.0351 16.8681L21.3653 14.1081Z" fill="#E27625" stroke="#E27625" stroke-width="0.2" stroke-linecap="round" stroke-linejoin="round"/>
  <path d="M10.9746 27.0538L14.4219 25.1039L11.3946 22.4701L10.9746 27.0538Z" fill="#E27625" stroke="#E27625" stroke-width="0.2" stroke-linecap="round" stroke-linejoin="round"/>
  <path d="M17.5781 25.1039L21.0155 27.0538L20.6055 22.4701L17.5781 25.1039Z" fill="#E27625" stroke="#E27625" stroke-width="0.2" stroke-linecap="round" stroke-linejoin="round"/>
  <path d="M21.0155 27.0539L17.5781 25.104L17.8877 27.6638L17.8577 28.804L21.0155 27.0539Z" fill="#D5BFB2" stroke="#D5BFB2" stroke-width="0.2" stroke-linecap="round" stroke-linejoin="round"/>
  <path d="M10.9746 27.0539L14.1424 28.804L14.1224 27.6638L14.4219 25.104L10.9746 27.0539Z" fill="#D5BFB2" stroke="#D5BFB2" stroke-width="0.2" stroke-linecap="round" stroke-linejoin="round"/>
  <path d="M14.2022 20.7379L11.2744 19.7577L13.3028 18.6975L14.2022 20.7379Z" fill="#233447" stroke="#233447" stroke-width="0.2" stroke-linecap="round" stroke-linejoin="round"/>
  <path d="M17.7979 20.7379L18.6973 18.6975L20.7357 19.7577L17.7979 20.7379Z" fill="#233447" stroke="#233447" stroke-width="0.2" stroke-linecap="round" stroke-linejoin="round"/>
  <path d="M10.9748 27.0538L11.4148 22.3303L8.1748 22.4302L10.9748 27.0538Z" fill="#CC6228" stroke="#CC6228" stroke-width="0.2" stroke-linecap="round" stroke-linejoin="round"/>
  <path d="M20.5852 22.3303L21.0152 27.0538L23.8252 22.4302L20.5852 22.3303Z" fill="#CC6228" stroke="#CC6228" stroke-width="0.2" stroke-linecap="round" stroke-linejoin="round"/>
  <path d="M23.0351 16.8681L17.2084 17.1578L17.7981 20.7379L18.6975 18.6975L20.7359 19.7577L23.0351 16.8681Z" fill="#CC6228" stroke="#CC6228" stroke-width="0.2" stroke-linecap="round" stroke-linejoin="round"/>
  <path d="M11.2744 19.7577L13.3128 18.6975L14.2022 20.7379L14.8018 17.1578L8.96484 16.8681L11.2744 19.7577Z" fill="#CC6228" stroke="#CC6228" stroke-width="0.2" stroke-linecap="round" stroke-linejoin="round"/>
  <path d="M8.96484 16.8681L11.3948 22.4701L11.2744 19.7577L8.96484 16.8681Z" fill="#E27525" stroke="#E27525" stroke-width="0.2" stroke-linecap="round" stroke-linejoin="round"/>
  <path d="M20.7357 19.7577L20.6055 22.4701L23.0354 16.8681L20.7357 19.7577Z" fill="#E27525" stroke="#E27525" stroke-width="0.2" stroke-linecap="round" stroke-linejoin="round"/>
  <path d="M14.8016 17.1579L14.2021 20.7379L14.9516 24.8946L15.1317 19.5978L14.8016 17.1579Z" fill="#E27525" stroke="#E27525" stroke-width="0.2" stroke-linecap="round" stroke-linejoin="round"/>
  <path d="M17.2082 17.1579L16.8882 19.588L17.0483 24.8946L17.7979 20.7379L17.2082 17.1579Z" fill="#E27525" stroke="#E27525" stroke-width="0.2" stroke-linecap="round" stroke-linejoin="round"/>
  <path d="M17.7979 20.7379L17.0483 24.8946L17.5781 25.1039L20.6055 22.4701L20.7357 19.7577L17.7979 20.7379Z" fill="#F5841F" stroke="#F5841F" stroke-width="0.2" stroke-linecap="round" stroke-linejoin="round"/>
  <path d="M11.2744 19.7577L11.3947 22.4701L14.4222 25.1039L14.9519 24.8946L14.2024 20.7379L11.2744 19.7577Z" fill="#F5841F" stroke="#F5841F" stroke-width="0.2" stroke-linecap="round" stroke-linejoin="round"/>
  <path d="M17.8577 28.8039L17.8877 27.6637L17.5977 27.4139H14.4024L14.1224 27.6637L14.1424 28.8039L10.9746 27.0538L12.1243 27.9936L14.3623 29.5039H17.6377L19.8858 27.9936L21.0155 27.0538L17.8577 28.8039Z" fill="#C0AC9D" stroke="#C0AC9D" stroke-width="0.2" stroke-linecap="round" stroke-linejoin="round"/>
  <path d="M17.5779 25.1039L17.0481 24.8946H14.9516L14.4219 25.1039L14.1223 27.6637L14.4024 27.4139H17.5978L17.8877 27.6637L17.5779 25.1039Z" fill="#161616" stroke="#161616" stroke-width="0.2" stroke-linecap="round" stroke-linejoin="round"/>
  <path d="M28.1722 11.0618L29.0616 6.23884L27.5818 2L17.5781 10.2926L21.3652 14.1081L26.7421 15.9183L27.9518 14.3681L27.4418 13.9983L28.2813 13.2486L27.6515 12.7689L28.4909 12.1292L28.1722 11.0618Z" fill="#763E1A" stroke="#763E1A" stroke-width="0.2" stroke-linecap="round" stroke-linejoin="round"/>
  <path d="M2.9375 6.23884L3.8369 11.0618L3.4983 12.1292L4.3478 12.7689L3.718 13.2486L4.5574 13.9983L4.0475 14.3681L5.2572 15.9183L10.634 14.1081L14.4211 10.2926L4.4175 2L2.9375 6.23884Z" fill="#763E1A" stroke="#763E1A" stroke-width="0.2" stroke-linecap="round" stroke-linejoin="round"/>
  <path d="M26.7428 15.9183L21.3659 14.1081L23.0358 16.8681L20.6059 22.4701L23.8258 22.4302H28.6425L26.7428 15.9183Z" fill="#F5841F" stroke="#F5841F" stroke-width="0.2" stroke-linecap="round" stroke-linejoin="round"/>
  <path d="M10.6343 14.1081L5.2574 15.9183L3.36768 22.4302H8.17438L11.3943 22.4701L8.96443 16.8681L10.6343 14.1081Z" fill="#F5841F" stroke="#F5841F" stroke-width="0.2" stroke-linecap="round" stroke-linejoin="round"/>
  <path d="M17.2086 17.1578L17.5785 10.2926L19.7735 5.56494H12.2266L14.4215 10.2926L14.8015 17.1578L14.9416 19.6077L14.9516 24.8946H17.0482L17.0682 19.6077L17.2086 17.1578Z" fill="#F5841F" stroke="#F5841F" stroke-width="0.2" stroke-linecap="round" stroke-linejoin="round"/>
</svg> 