<svg width="32" height="32" viewBox="0 0 32 32" fill="none" xmlns="http://www.w3.org/2000/svg">
  <path d="M8.29941 11.3306C13.4174 6.27953 21.6251 6.27954 26.7431 11.3306L27.2057 11.7858C27.4334 12.0093 27.4334 12.3745 27.2057 12.598L25.1997 14.5758C25.0859 14.6875 24.9032 14.6875 24.7894 14.5758L24.1446 13.9417C20.4277 10.2822 14.6148 10.2822 10.8979 13.9417L10.2089 14.6214C10.0951 14.7331 9.91242 14.7331 9.79863 14.6214L7.79261 12.6436C7.56486 12.4201 7.56486 12.0549 7.79261 11.8314L8.29941 11.3306ZM29.9171 14.4641L31.7034 16.2221C31.9312 16.4456 31.9312 16.8108 31.7034 17.0343L23.0045 25.6015C22.7768 25.825 22.4114 25.825 22.1837 25.6015L16.1749 19.6731C16.118 19.6173 16.0265 19.6173 15.9696 19.6731L9.96083 25.6015C9.73308 25.825 9.36767 25.825 9.13993 25.6015L0.44105 17.0343C0.213309 16.8108 0.213308 16.4456 0.44105 16.2221L2.22732 14.4641C2.45507 14.2406 2.82047 14.2406 3.04822 14.4641L9.05696 20.3925C9.11387 20.4483 9.20542 20.4483 9.26232 20.3925L15.2712 14.4641C15.4989 14.2406 15.8643 14.2406 16.092 14.4641L22.1008 20.3925C22.1577 20.4483 22.2492 20.4483 22.3061 20.3925L28.3149 14.4641C28.5426 14.2406 28.908 14.2406 29.1358 14.4641H29.9171Z" fill="#3B99FC"/>
</svg> 